#Comment line ignore any data following # character 
#Hierarchical Translation and Rotation (.htr) file 
[Header]	
#Header keywords are followed by a single value 
FileType HTR		#Single word string
DataType HTRS		#Translation followed by rotation and scale data
FileVersion 1		#integer
NumSegments 23		#integer
NumFrames 5		#integer
DataFrameRate 30		#integer, data frame rate in this file
EulerRotationOrder ZYX
CalibrationUnits mm
RotationUnits Degrees
GlobalAxisofGravity Y
BoneLengthAxis Y
ScaleFactor 1.00
[SegmentNames&Hierarchy]
#CHILD	PARENT
MASTER GLOBAL
weapon MASTER
arm_lock_bottom_part1 weapon
arm_lock_bottom_part2 weapon
arm_lock_bottom_part3 weapon
arm_lock_bottom_part4 weapon
arm_lock_top_part1 weapon
arm_lock_top_part2 weapon
arm_lock_top_part3 weapon
front_lower_left_part1 weapon
front_lower_right_part1 weapon
front_top_left_part weapon
front_top_right_part1 weapon
scope_part1 weapon
scope_part2 weapon
front_lower_left_part2 front_lower_left_part1
front_lower_left_part3 front_lower_left_part2
front_lower_right_part2 front_lower_right_part1
front_lower_right_part3 front_lower_right_part2
front_top_left_part2 front_top_left_part
front_top_left_part3 front_top_left_part2
front_top_right_part2 front_top_right_part1
front_top_right_part3 front_top_right_part2
[BasePosition]
#SegmentName Tx, Ty, Tz, Rx, Ry, Rz, BoneLength
MASTER 0.000000 0.000000 0.000000 -90.000000 0.000000 0.000000 10.000000 
weapon 0.000000 0.000000 0.000000 0.000000 0.000000 0.000000 10.000000 
arm_lock_bottom_part1 0.000000 0.000000 0.000000 0.000000 0.000000 0.000000 10.000000 
arm_lock_bottom_part2 0.000000 0.000000 0.000000 0.000000 0.000000 0.000000 10.000000 
arm_lock_bottom_part3 0.000000 0.000000 0.000000 0.000000 0.000000 0.000000 10.000000 
arm_lock_bottom_part4 0.000000 0.000000 0.000000 0.000000 0.000000 0.000000 10.000000 
arm_lock_top_part1 0.000000 0.000000 0.000000 0.000000 0.000000 0.000000 10.000000 
arm_lock_top_part2 0.000000 0.000000 0.000000 0.000000 0.000000 0.000000 10.000000 
arm_lock_top_part3 0.000000 0.000000 0.000000 0.000000 0.000000 0.000000 10.000000 
front_lower_left_part1 0.000000 0.000000 0.000000 0.000000 0.000000 0.000000 10.000000 
front_lower_right_part1 0.000000 0.000000 0.000000 0.000000 0.000000 0.000000 10.000000 
front_top_left_part 0.000000 0.000000 0.000000 0.000000 0.000000 0.000000 10.000000 
front_top_right_part1 0.000000 0.000000 0.000000 0.000000 0.000000 0.000000 10.000000 
scope_part1 0.000000 0.000000 0.000000 0.000000 0.000000 0.000000 10.000000 
scope_part2 0.000000 0.000000 0.000000 0.000000 0.000000 0.000000 10.000000 
front_lower_left_part2 0.000000 0.000000 0.000000 0.000000 0.000000 0.000000 10.000000 
front_lower_left_part3 0.000000 0.000000 0.000000 0.000000 0.000000 0.000000 10.000000 
front_lower_right_part2 0.000000 0.000000 0.000000 0.000000 0.000000 0.000000 10.000000 
front_lower_right_part3 0.000000 0.000000 0.000000 0.000000 0.000000 0.000000 10.000000 
front_top_left_part2 0.000000 0.000000 0.000000 0.000000 0.000000 0.000000 10.000000 
front_top_left_part3 0.000000 0.000000 0.000000 0.000000 0.000000 0.000000 10.000000 
front_top_right_part2 0.000000 0.000000 0.000000 0.000000 0.000000 0.000000 10.000000 
front_top_right_part3 0.000000 0.000000 0.000000 0.000000 0.000000 0.000000 10.000000 
#Beginning of Data. Separated by tabs
#Fr	Tx	Ty	Tz	Rx	Ry	Rz	SF
[MASTER]
64 0.000000 -0.000019 0.000002 0.002458 -0.000000 0.000000 0.000019
65 0.000000 -0.000019 0.000002 0.002458 -0.000000 0.000000 0.000019
66 0.000000 -0.000019 0.000002 0.002458 -0.000000 0.000000 0.000019
67 0.000000 -0.000019 0.000002 0.002458 -0.000000 0.000000 0.000019
68 0.000000 -0.000019 0.000002 0.002458 -0.000000 0.000000 0.000019
[weapon]
64 10.182457 -168.977844 -13.084106 -0.002473 -0.000000 -0.000020 169.789246
65 10.182476 -168.977844 -13.084106 -0.002473 -0.000000 -0.000020 169.789246
66 10.182457 -168.977844 -13.084106 -0.002473 -0.000000 -0.000020 169.789246
67 10.182457 -168.977844 -13.084106 -0.002473 -0.000000 -0.000020 169.789246
68 10.182476 -168.977844 -13.084106 -0.002473 -0.000000 -0.000020 169.789246
[arm_lock_bottom_part1]
64 -48.820000 98.566208 -83.498993 179.999985 0.000004 9.388626 138.096970
65 -48.820000 98.566170 -83.498993 179.999985 0.000004 9.388626 138.096939
66 -48.820000 98.566208 -83.498993 179.999985 0.000004 9.388626 138.096970
67 -48.820000 98.566208 -83.498993 179.999985 0.000004 9.388626 138.096970
68 -48.820000 98.566170 -83.498993 179.999985 0.000004 9.388626 138.096939
[arm_lock_bottom_part2]
64 -49.022766 58.782005 -78.526535 -179.999985 -0.000001 6.576765 109.658440
65 -49.022766 58.781967 -78.526535 -179.999985 -0.000001 6.576765 109.658417
66 -49.022766 58.782005 -78.526535 -179.999985 -0.000001 6.576765 109.658440
67 -49.022766 58.782005 -78.526535 -179.999985 -0.000001 6.576765 109.658440
68 -49.022766 58.781967 -78.526535 -179.999985 -0.000001 6.576765 109.658417
[arm_lock_bottom_part3]
64 -51.266422 -16.798210 -66.920395 -179.999985 -0.000001 4.326176 85.957924
65 -51.266422 -16.798248 -66.920395 -179.999985 -0.000001 4.326176 85.957932
66 -51.266422 -16.798210 -66.920395 -179.999985 -0.000001 4.326176 85.957924
67 -51.266422 -16.798210 -66.920395 -179.999985 -0.000001 4.326176 85.957924
68 -51.266422 -16.798248 -66.920395 -179.999985 -0.000001 4.326176 85.957932
[arm_lock_bottom_part4]
64 -40.078102 -93.503113 -59.330063 -179.999985 -0.000000 1.322129 117.767326
65 -40.078083 -93.503136 -59.330063 -179.999985 -0.000000 1.322129 117.767326
66 -40.078102 -93.503113 -59.330063 -179.999985 -0.000000 1.322129 117.767326
67 -40.078102 -93.503113 -59.330063 -179.999985 -0.000000 1.322129 117.767326
68 -40.078083 -93.503136 -59.330063 -179.999985 -0.000000 1.322129 117.767326
[arm_lock_top_part1]
64 -47.532558 61.554489 78.379364 0.000000 -0.000000 -9.999999 110.415680
65 -47.532558 61.554451 78.379364 0.000000 -0.000000 -9.999999 110.415672
66 -47.532558 61.554489 78.379364 0.000000 -0.000000 -9.999999 110.415680
67 -47.532558 61.554489 78.379364 0.000000 -0.000000 -9.999999 110.415680
68 -47.532558 61.554451 78.379364 0.000000 -0.000000 -9.999999 110.415672
[arm_lock_top_part2]
64 -45.622673 13.709908 63.393555 0.000000 -0.000000 -7.722126 79.297745
65 -45.622673 13.709869 63.393555 0.000000 -0.000000 -7.722126 79.297745
66 -45.622673 13.709908 63.393555 0.000000 -0.000000 -7.722126 79.297745
67 -45.622673 13.709908 63.393555 0.000000 -0.000000 -7.722126 79.297745
68 -45.622673 13.709869 63.393555 0.000000 -0.000000 -7.722126 79.297745
[arm_lock_top_part3]
64 -43.788544 -73.747208 72.061615 0.000000 0.000000 -4.533067 112.022163
65 -43.788525 -73.747253 72.061615 0.000000 0.000000 -4.533067 112.022179
66 -43.788544 -73.747208 72.061615 0.000000 0.000000 -4.533067 112.022163
67 -43.788544 -73.747208 72.061615 0.000000 0.000000 -4.533067 112.022163
68 -43.788525 -73.747253 72.061615 0.000000 0.000000 -4.533067 112.022179
[front_lower_left_part1]
64 -46.798553 475.070984 -43.538895 0.000000 0.000003 -0.000000 479.351837
65 -46.798553 475.070953 -43.538895 0.000000 0.000003 -0.000000 479.351807
66 -46.798553 475.070984 -43.538895 0.000000 0.000003 -0.000000 479.351837
67 -46.798553 475.070984 -43.538895 0.000000 0.000003 -0.000000 479.351837
68 -46.798553 475.070953 -43.538895 0.000000 0.000003 -0.000000 479.351807
[front_lower_right_part1]
64 26.433468 475.070984 -43.538742 0.000000 -0.000000 -0.000000 477.793671
65 26.433447 475.070953 -43.538895 0.000000 -0.000000 -0.000000 477.793640
66 26.433468 475.070984 -43.538742 0.000000 -0.000000 -0.000000 477.793671
67 26.433468 475.070984 -43.538742 0.000000 -0.000000 -0.000000 477.793671
68 26.433447 475.070953 -43.538895 0.000000 -0.000000 -0.000000 477.793640
[front_top_left_part]
64 -47.897224 494.788910 7.030945 -0.000000 0.000003 -0.000001 497.151520
65 -47.897224 494.788879 7.030945 -0.000000 0.000003 -0.000001 497.151489
66 -47.897224 494.788910 7.030945 -0.000000 0.000003 -0.000001 497.151520
67 -47.897224 494.788910 7.030945 -0.000000 0.000003 -0.000001 497.151520
68 -47.897224 494.788879 7.030945 -0.000000 0.000003 -0.000001 497.151489
[front_top_right_part1]
64 27.532139 494.788910 7.031097 0.000000 -0.000000 -0.000000 495.604218
65 27.532156 494.788879 7.031097 0.000000 -0.000000 -0.000000 495.604187
66 27.532139 494.788910 7.031097 0.000000 -0.000000 -0.000000 495.604218
67 27.532139 494.788910 7.031097 0.000000 -0.000000 -0.000000 495.604218
68 27.532156 494.788879 7.031097 0.000000 -0.000000 -0.000000 495.604187
[scope_part1]
64 -10.754299 87.338936 156.453094 -4.904872 -0.747814 0.064181 179.502960
65 -10.754318 87.338905 156.453094 -4.904817 -0.706274 0.060699 179.502960
66 -10.754299 87.338936 156.453094 -4.904764 -0.664897 0.057074 179.502960
67 -10.754299 87.338936 156.453094 -4.904797 -0.623664 0.053606 179.502960
68 -10.754318 87.338905 156.453094 -4.904750 -0.582826 0.049997 179.502960
[scope_part2]
64 -10.754299 82.597351 156.859894 -4.904802 0.694951 -0.059640 177.603500
65 -10.754280 82.597305 156.859894 -4.904752 0.656344 -0.056284 177.603470
66 -10.754299 82.597351 156.859894 -4.904707 0.617888 -0.052941 177.603500
67 -10.754299 82.597351 156.859894 -4.904747 0.579590 -0.049749 177.603500
68 -10.754280 82.597305 156.859894 -4.904707 0.541673 -0.046422 177.603470
[front_lower_left_part2]
64 -55.193516 141.618484 32.268444 0.000000 -0.000000 3.025942 155.381378
65 -55.193501 141.618484 32.268444 0.000000 -0.000000 2.922826 155.381378
66 -55.193516 141.618484 32.268444 0.000000 -0.000000 2.810432 155.381378
67 -55.193516 141.618484 32.268444 0.000000 -0.000000 2.689694 155.381378
68 -55.193501 141.618484 32.268444 0.000000 -0.000000 2.561690 155.381378
[front_lower_left_part3]
64 -10.943755 108.509369 -11.124877 33.840424 -14.845744 -15.304468 109.625778
65 -10.943775 108.509445 -11.124877 33.817867 -14.902605 -15.216630 109.625854
66 -10.943775 108.509445 -11.124877 33.794727 -14.960672 -15.126936 109.625854
67 -10.943775 108.509445 -11.124877 33.771202 -15.019569 -15.035806 109.625854
68 -10.943755 108.509521 -11.124877 33.747292 -15.079081 -14.943646 109.625931
[front_lower_right_part2]
64 55.193707 141.618347 32.268291 0.000000 0.000000 -1.437216 155.381271
65 55.193707 141.618347 32.268291 0.000000 0.000000 -1.390692 155.381271
66 55.193707 141.618347 32.268291 0.000000 0.000000 -1.337214 155.381271
67 55.193707 141.618347 32.268291 0.000000 0.000000 -1.278016 155.381271
68 55.193707 141.618347 32.268291 0.000000 0.000000 -1.218818 155.381271
[front_lower_right_part3]
64 10.943909 108.509445 -11.124725 33.566929 15.517954 14.260137 109.625854
65 10.943909 108.509445 -11.124877 33.556034 15.544043 14.219472 109.625870
66 10.943909 108.509445 -11.124725 33.544975 15.570374 14.178205 109.625854
67 10.943870 108.509445 -11.124725 33.533817 15.596836 14.136794 109.625854
68 10.943909 108.509521 -11.124725 33.522629 15.623334 14.095229 109.625931
[front_top_left_part2]
64 -39.901474 137.493591 54.692684 0.000000 -0.000003 0.000001 153.257645
65 -40.034374 137.493210 54.700008 0.000000 -0.000003 0.000001 153.294571
66 -40.169113 137.493057 54.707485 0.000000 -0.000003 0.000001 153.332352
67 -40.305218 137.492752 54.714962 0.000000 -0.000003 0.000001 153.370453
68 -40.442188 137.492447 54.722443 0.000000 -0.000003 0.000001 153.408905
[front_top_left_part3]
64 -28.216457 149.657059 49.959717 -25.900217 -3.504561 -65.711784 160.279053
65 -28.216457 149.656982 49.959717 -25.897442 -3.526578 -65.757294 160.278992
66 -28.216457 149.657059 49.959717 -25.894672 -3.548464 -65.802467 160.279053
67 -28.216457 149.656906 49.959717 -25.891867 -3.570346 -65.847618 160.278915
68 -28.216438 149.656906 49.959717 -25.888994 -3.592017 -65.892311 160.278915
[front_top_right_part2]
64 39.718250 137.481918 54.995880 0.000000 0.000000 -0.000020 153.308060
65 39.860195 137.482224 54.988098 0.000000 0.000000 -0.000020 153.342392
66 40.004242 137.482529 54.980164 0.000000 0.000000 -0.000020 153.377319
67 40.149696 137.482834 54.972229 0.000000 0.000000 -0.000020 153.412766
68 40.296024 137.483139 54.964142 0.000000 0.000000 -0.000020 153.448486
[front_top_right_part3]
64 28.216476 149.657135 49.959717 -25.879154 3.668209 66.049698 160.279129
65 28.216553 149.657135 49.959717 -25.877443 3.681148 66.076271 160.279144
66 28.216515 149.657135 49.959717 -25.875696 3.694031 66.103027 160.279129
67 28.216476 149.657135 49.959564 -25.873955 3.706824 66.129440 160.279083
68 28.216515 149.657135 49.959717 -25.872263 3.719517 66.155678 160.279129
